<?xml version="1.0" encoding="UTF-8" standalone="no"?><!DOCTYPE svg PUBLIC "-//W3C//DTD SVG 1.1//EN" "http://www.w3.org/Graphics/SVG/1.1/DTD/svg11.dtd"><!-- Generated by graphviz version 2.40.1 (20161225.0304)
 --><!-- Title: G Pages: 1 --><svg xmlns="http://www.w3.org/2000/svg" xmlns:xlink="http://www.w3.org/1999/xlink" width="538pt" height="482pt" viewBox="0.00 0.00 537.85 481.63">
<g id="graph0" class="graph" transform="scale(1 1) rotate(0) translate(4 477.6254)">
<title>G</title>
<polygon fill="#ffffff" stroke="transparent" points="-4,4 -4,-477.6254 533.8523,-477.6254 533.8523,4 -4,4"/>
<!-- S -->
<g id="node1" class="node">
<title>S</title>
<ellipse fill="none" stroke="#000000" cx="279.8425" cy="-282.5" rx="27" ry="18"/>
<text text-anchor="middle" x="279.8425" y="-278.3" font-family="Times,serif" font-size="14.00" fill="#000000">S</text>
</g>
<!-- D -->
<g id="node2" class="node">
<title>D</title>
<ellipse fill="none" stroke="#000000" cx="331.6177" cy="-334.1016" rx="27" ry="18"/>
<text text-anchor="middle" x="331.6177" y="-329.9016" font-family="Times,serif" font-size="14.00" fill="#000000">D</text>
</g>
<!-- S&#45;&#45;D -->
<g id="edge1" class="edge">
<title>S--D</title>
<path fill="none" stroke="#000000" d="M295.0968,-297.7031C301.7784,-304.3623 309.604,-312.1617 316.2936,-318.8289"/>
<text text-anchor="middle" x="302.1952" y="-312.466" font-family="Times,serif" font-size="14.00" fill="#000000">1</text>
</g>
<!-- O -->
<g id="node5" class="node">
<title>O</title>
<ellipse fill="none" stroke="#000000" cx="231.4646" cy="-225.7486" rx="27" ry="18"/>
<text text-anchor="middle" x="231.4646" y="-221.5486" font-family="Times,serif" font-size="14.00" fill="#000000">O</text>
</g>
<!-- S&#45;&#45;O -->
<g id="edge3" class="edge">
<title>S--O</title>
<path fill="none" stroke="#000000" d="M272.605,-264.9487C266.6779,-256.4071 258.2906,-246.388 250.5726,-238.5621"/>
<text text-anchor="middle" x="265.0888" y="-239.1554" font-family="Times,serif" font-size="14.00" fill="#000000">3</text>
</g>
<!-- S&#45;&#45;O -->
<g id="edge11" class="edge">
<title>S--O</title>
<path fill="none" stroke="#000000" d="M260.5748,-269.5242C252.8535,-261.6743 244.4857,-251.6597 238.5934,-243.143"/>
<text text-anchor="middle" x="242.5841" y="-260.5336" font-family="Times,serif" font-size="14.00" fill="#000000">11</text>
</g>
<!-- B -->
<g id="node3" class="node">
<title>B</title>
<ellipse fill="none" stroke="#000000" cx="27" cy="-188.8849" rx="27" ry="18"/>
<text text-anchor="middle" x="27" y="-184.6849" font-family="Times,serif" font-size="14.00" fill="#000000">B</text>
</g>
<!-- E -->
<g id="node4" class="node">
<title>E</title>
<ellipse fill="none" stroke="#000000" cx="101.0812" cy="-179.1206" rx="27" ry="18"/>
<text text-anchor="middle" x="101.0812" y="-174.9206" font-family="Times,serif" font-size="14.00" fill="#000000">E</text>
</g>
<!-- B&#45;&#45;E -->
<g id="edge2" class="edge">
<title>B--E</title>
<path fill="none" stroke="#000000" d="M53.7557,-191.8858C61.6526,-191.2523 70.2264,-190.0866 77.8802,-188.5992"/>
<text text-anchor="middle" x="62.3179" y="-194.4425" font-family="Times,serif" font-size="14.00" fill="#000000">2</text>
</g>
<!-- B&#45;&#45;E -->
<g id="edge8" class="edge">
<title>B--E</title>
<path fill="none" stroke="#000000" d="M50.0172,-179.4421C57.7364,-177.9339 66.408,-176.7525 74.3844,-176.115"/>
<text text-anchor="middle" x="58.7008" y="-165.1785" font-family="Times,serif" font-size="14.00" fill="#000000">8</text>
</g>
<!-- G -->
<g id="node6" class="node">
<title>G</title>
<ellipse fill="none" stroke="#000000" cx="416.6321" cy="-175.2312" rx="27" ry="18"/>
<text text-anchor="middle" x="416.6321" y="-171.0312" font-family="Times,serif" font-size="14.00" fill="#000000">G</text>
</g>
<!-- P -->
<g id="node7" class="node">
<title>P</title>
<ellipse fill="none" stroke="#000000" cx="464.5812" cy="-114" rx="27" ry="18"/>
<text text-anchor="middle" x="464.5812" y="-109.8" font-family="Times,serif" font-size="14.00" fill="#000000">P</text>
</g>
<!-- G&#45;&#45;P -->
<g id="edge4" class="edge">
<title>G--P</title>
<path fill="none" stroke="#000000" d="M429.2302,-159.1434C436.2224,-150.2143 444.8954,-139.1388 451.9008,-130.1929"/>
<text text-anchor="middle" x="437.0655" y="-132.0682" font-family="Times,serif" font-size="14.00" fill="#000000">4</text>
</g>
<!-- C -->
<g id="node8" class="node">
<title>C</title>
<ellipse fill="none" stroke="#000000" cx="340.1694" cy="-168.1114" rx="27" ry="18"/>
<text text-anchor="middle" x="340.1694" y="-163.9114" font-family="Times,serif" font-size="14.00" fill="#000000">C</text>
</g>
<!-- C&#45;&#45;G -->
<g id="edge5" class="edge">
<title>C--G</title>
<path fill="none" stroke="#000000" d="M366.9123,-170.6016C374.3196,-171.2913 382.3612,-172.0401 389.775,-172.7304"/>
<text text-anchor="middle" x="374.8437" y="-175.866" font-family="Times,serif" font-size="14.00" fill="#000000">5</text>
</g>
<!-- R -->
<g id="node14" class="node">
<title>R</title>
<ellipse fill="none" stroke="#000000" cx="267" cy="-165.2363" rx="27" ry="18"/>
<text text-anchor="middle" x="267" y="-161.0363" font-family="Times,serif" font-size="14.00" fill="#000000">R</text>
</g>
<!-- C&#45;&#45;R -->
<g id="edge12" class="edge">
<title>C--R</title>
<path fill="none" stroke="#000000" d="M312.9238,-167.0408C306.7479,-166.7982 300.1914,-166.5405 294.0247,-166.2982"/>
<text text-anchor="middle" x="306.9743" y="-154.0695" font-family="Times,serif" font-size="14.00" fill="#000000">12</text>
</g>
<!-- F -->
<g id="node9" class="node">
<title>F</title>
<ellipse fill="none" stroke="#000000" cx="123" cy="-431.4776" rx="27" ry="18"/>
<text text-anchor="middle" x="123" y="-427.2776" font-family="Times,serif" font-size="14.00" fill="#000000">F</text>
</g>
<!-- A -->
<g id="node10" class="node">
<title>A</title>
<ellipse fill="none" stroke="#000000" cx="167.0205" cy="-374.1545" rx="27" ry="18"/>
<text text-anchor="middle" x="167.0205" y="-369.9545" font-family="Times,serif" font-size="14.00" fill="#000000">A</text>
</g>
<!-- F&#45;&#45;A -->
<g id="edge6" class="edge">
<title>F--A</title>
<path fill="none" stroke="#000000" d="M135.4968,-415.2044C141.4956,-407.3928 148.6619,-398.0609 154.6449,-390.27"/>
<text text-anchor="middle" x="148.5708" y="-406.9372" font-family="Times,serif" font-size="14.00" fill="#000000">6</text>
</g>
<!-- T -->
<g id="node11" class="node">
<title>T</title>
<ellipse fill="none" stroke="#000000" cx="179.7636" cy="-165.6917" rx="27" ry="18"/>
<text text-anchor="middle" x="179.7636" y="-161.4917" font-family="Times,serif" font-size="14.00" fill="#000000">T</text>
</g>
<!-- T&#45;&#45;E -->
<g id="edge13" class="edge">
<title>T--E</title>
<path fill="none" stroke="#000000" d="M153.5635,-170.1633C145.159,-171.5977 135.8506,-173.1864 127.4351,-174.6227"/>
<text text-anchor="middle" x="143.9993" y="-159.793" font-family="Times,serif" font-size="14.00" fill="#000000">13</text>
</g>
<!-- T&#45;&#45;O -->
<g id="edge10" class="edge">
<title>T--O</title>
<path fill="none" stroke="#000000" d="M193.3474,-181.4709C200.8868,-190.2288 210.2384,-201.0919 217.7919,-209.8662"/>
<text text-anchor="middle" x="198.5697" y="-199.8686" font-family="Times,serif" font-size="14.00" fill="#000000">10</text>
</g>
<!-- V -->
<g id="node12" class="node">
<title>V</title>
<ellipse fill="none" stroke="#000000" cx="204.4189" cy="-89.7626" rx="27" ry="18"/>
<text text-anchor="middle" x="204.4189" y="-85.5626" font-family="Times,serif" font-size="14.00" fill="#000000">V</text>
</g>
<!-- T&#45;&#45;V -->
<g id="edge7" class="edge">
<title>T--V</title>
<path fill="none" stroke="#000000" d="M185.482,-148.0812C189.4366,-135.9023 194.6797,-119.7557 198.6461,-107.5406"/>
<text text-anchor="middle" x="188.564" y="-132.0109" font-family="Times,serif" font-size="14.00" fill="#000000">7</text>
</g>
<!-- U -->
<g id="node13" class="node">
<title>U</title>
<ellipse fill="none" stroke="#000000" cx="225.3034" cy="-18" rx="27" ry="18"/>
<text text-anchor="middle" x="225.3034" y="-13.8" font-family="Times,serif" font-size="14.00" fill="#000000">U</text>
</g>
<!-- U&#45;&#45;V -->
<g id="edge9" class="edge">
<title>U--V</title>
<path fill="none" stroke="#000000" d="M220.1409,-35.7391C216.952,-46.6966 212.8717,-60.7173 209.667,-71.7291"/>
<text text-anchor="middle" x="211.404" y="-57.9341" font-family="Times,serif" font-size="14.00" fill="#000000">9</text>
</g>
<!-- L -->
<g id="node15" class="node">
<title>L</title>
<ellipse fill="none" stroke="#000000" cx="291" cy="-76.6391" rx="27" ry="18"/>
<text text-anchor="middle" x="291" y="-72.4391" font-family="Times,serif" font-size="14.00" fill="#000000">L</text>
</g>
<!-- N -->
<g id="node16" class="node">
<title>N</title>
<ellipse fill="none" stroke="#000000" cx="362.2096" cy="-66" rx="27" ry="18"/>
<text text-anchor="middle" x="362.2096" y="-61.8" font-family="Times,serif" font-size="14.00" fill="#000000">N</text>
</g>
<!-- L&#45;&#45;N -->
<g id="edge14" class="edge">
<title>L--N</title>
<path fill="none" stroke="#000000" d="M317.5158,-72.6775C323.3682,-71.8031 329.5716,-70.8763 335.4342,-70.0004"/>
<text text-anchor="middle" x="326.475" y="-58.7389" font-family="Times,serif" font-size="14.00" fill="#000000">14</text>
</g>
<!-- X -->
<g id="node17" class="node">
<title>X</title>
<ellipse fill="none" stroke="#000000" cx="458.957" cy="-398.2063" rx="27" ry="18"/>
<text text-anchor="middle" x="458.957" y="-394.0063" font-family="Times,serif" font-size="14.00" fill="#000000">X</text>
</g>
<!-- I -->
<g id="node18" class="node">
<title>I</title>
<ellipse fill="none" stroke="#000000" cx="502.8523" cy="-455.6254" rx="27" ry="18"/>
<text text-anchor="middle" x="502.8523" y="-451.4254" font-family="Times,serif" font-size="14.00" fill="#000000">I</text>
</g>
<!-- X&#45;&#45;I -->
<g id="edge15" class="edge">
<title>X--I</title>
<path fill="none" stroke="#000000" d="M471.4182,-414.5067C477.4,-422.3314 484.5459,-431.679 490.5119,-439.483"/>
<text text-anchor="middle" x="473.9651" y="-431.1949" font-family="Times,serif" font-size="14.00" fill="#000000">15</text>
</g>
<!-- M -->
<g id="node20" class="node">
<title>M</title>
<ellipse fill="none" stroke="#000000" cx="435" cy="-330" rx="27" ry="18"/>
<text text-anchor="middle" x="435" y="-325.8" font-family="Times,serif" font-size="14.00" fill="#000000">M</text>
</g>
<!-- X&#45;&#45;M -->
<g id="edge17" class="edge">
<title>X--M</title>
<path fill="none" stroke="#000000" d="M452.7875,-380.6415C449.2384,-370.537 444.7915,-357.8766 441.2319,-347.7424"/>
<text text-anchor="middle" x="440.0097" y="-368.3919" font-family="Times,serif" font-size="14.00" fill="#000000">17</text>
</g>
<!-- K -->
<g id="node19" class="node">
<title>K</title>
<ellipse fill="none" stroke="#000000" cx="453.1312" cy="-243.9016" rx="27" ry="18"/>
<text text-anchor="middle" x="453.1312" y="-239.7016" font-family="Times,serif" font-size="14.00" fill="#000000">K</text>
</g>
<!-- K&#45;&#45;G -->
<g id="edge16" class="edge">
<title>K--G</title>
<path fill="none" stroke="#000000" d="M444.109,-226.9269C438.5359,-216.4415 431.4048,-203.0249 425.8041,-192.4876"/>
<text text-anchor="middle" x="427.9565" y="-213.9072" font-family="Times,serif" font-size="14.00" fill="#000000">16</text>
</g>
<!-- H -->
<g id="node21" class="node">
<title>H</title>
<ellipse fill="none" stroke="#000000" cx="191.125" cy="-306" rx="27" ry="18"/>
<text text-anchor="middle" x="191.125" y="-301.8" font-family="Times,serif" font-size="14.00" fill="#000000">H</text>
</g>
<!-- H&#45;&#45;A -->
<g id="edge18" class="edge">
<title>H--A</title>
<path fill="none" stroke="#000000" d="M184.9175,-323.5515C181.3465,-333.6483 176.8723,-346.2991 173.2908,-356.4256"/>
<text text-anchor="middle" x="172.1041" y="-344.1886" font-family="Times,serif" font-size="14.00" fill="#000000">18</text>
</g>
</g>
</svg>